<svg width="532" height="314" viewBox="0 0 532 314" fill="none" xmlns="http://www.w3.org/2000/svg">
<rect x="386.5" y="30.5" width="124" height="193" rx="62" stroke="white" stroke-width="5"/>
<path d="M448.5 310C471.941 310 492 293.529 492 272C492 250.471 471.941 234 448.5 234C425.059 234 405 250.471 405 272C405 293.529 425.059 310 448.5 310Z" stroke="#FBF4F4" stroke-width="8"/>
<path d="M82.5 303C105.941 303 126 286.529 126 265C126 243.471 105.941 227 82.5 227C59.0595 227 39 243.471 39 265C39 286.529 59.0595 303 82.5 303Z" stroke="#FBF4F4" stroke-width="8"/>
<path d="M26.6967 154.697C23.7678 157.626 23.7678 162.374 26.6967 165.303L74.4264 213.033C77.3553 215.962 82.1041 215.962 85.033 213.033C87.9619 210.104 87.9619 205.355 85.033 202.426L42.6066 160L85.033 117.574C87.9619 114.645 87.9619 109.896 85.033 106.967C82.1041 104.038 77.3553 104.038 74.4264 106.967L26.6967 154.697ZM389.006 152.5L32 152.5V167.5L389.006 167.5V152.5Z" fill="white"/>
<path d="M127.752 142.363C126.856 142.363 126.232 141.899 125.88 140.971C125.528 140.043 125.24 138.795 125.016 137.227L124.872 136.027C124.392 133.467 124.008 130.923 123.72 128.395C123.432 125.835 123.144 122.747 122.856 119.131L122.568 115.579C120.648 115.611 117.912 115.531 114.36 115.339L113.4 115.291C112.952 115.259 112.632 115.051 112.44 114.667C112.28 114.251 112.2 113.691 112.2 112.987H115.512C121.08 112.987 126.104 113.195 130.584 113.611C135.064 114.027 137.304 114.875 137.304 116.155C137.304 116.507 137.24 116.747 137.112 116.875C137.016 117.003 136.792 117.067 136.44 117.067C135.16 116.971 133.176 116.699 130.488 116.251C129.88 116.155 129.144 116.043 128.28 115.915C127.416 115.787 126.44 115.659 125.352 115.531C125.352 120.171 126.04 127.307 127.416 136.939C127.48 137.419 127.704 138.107 128.088 139.003C128.248 139.387 128.392 139.803 128.52 140.251C128.68 140.667 128.76 141.051 128.76 141.403C128.76 141.851 128.696 142.123 128.568 142.219C128.44 142.315 128.28 142.363 128.088 142.363C127.928 142.363 127.816 142.363 127.752 142.363ZM144.66 142.315C143.348 139.755 142.308 136.747 141.54 133.291C140.804 129.835 140.436 126.843 140.436 124.315C140.436 123.323 140.66 122.683 141.108 122.395C141.364 122.235 141.556 122.155 141.684 122.155C141.908 122.155 142.068 122.331 142.164 122.683C142.292 123.035 142.42 123.675 142.548 124.603L142.788 126.331C143.14 124.603 143.812 123.243 144.804 122.251C145.828 121.227 147.076 120.715 148.548 120.715C150.18 120.715 151.396 121.035 152.196 121.675C152.996 122.283 153.396 123.307 153.396 124.747C151.796 123.979 150.34 123.595 149.028 123.595C147.78 123.595 146.708 123.931 145.812 124.603C144.916 125.275 144.292 126.267 143.94 127.579C143.652 128.475 143.508 129.323 143.508 130.123C143.508 130.987 143.62 131.803 143.844 132.571C144.1 133.307 144.484 134.219 144.996 135.307C145.476 136.427 145.844 137.387 146.1 138.187C146.388 138.987 146.548 139.851 146.58 140.779C146.58 141.323 146.388 141.723 146.004 141.979C145.62 142.203 145.172 142.315 144.66 142.315ZM167.631 142.315C164.303 142.315 161.407 141.739 158.943 140.587C156.511 139.403 155.295 137.339 155.295 134.395C155.295 133.339 155.615 132.315 156.255 131.323C156.895 130.331 157.839 129.531 159.087 128.923C160.335 128.283 161.855 127.963 163.647 127.963C165.023 127.963 166.191 128.027 167.151 128.155C168.111 128.283 169.215 128.635 170.463 129.211C171.711 129.787 173.007 130.699 174.351 131.947C173.839 129.739 173.071 127.803 172.047 126.139C171.023 124.475 169.871 123.195 168.591 122.299C167.343 121.371 166.111 120.907 164.895 120.907C164.319 120.907 163.775 121.019 163.263 121.243C162.783 121.435 162.191 121.723 161.487 122.107C160.687 122.619 160.095 122.875 159.711 122.875C159.551 122.875 159.407 122.827 159.279 122.731C159.183 122.603 159.135 122.459 159.135 122.299C159.135 121.019 159.695 120.027 160.815 119.323C161.967 118.619 163.359 118.299 164.991 118.363C167.231 118.491 169.279 119.451 171.135 121.243C172.991 123.003 174.447 125.195 175.503 127.819C176.591 130.443 177.135 133.019 177.135 135.547C177.135 135.963 177.103 136.555 177.039 137.323L175.503 137.227C174.287 134.763 172.719 133.019 170.799 131.995C168.911 130.939 167.007 130.411 165.087 130.411C162.623 130.411 160.863 130.779 159.807 131.515C158.751 132.251 158.223 133.323 158.223 134.731C158.223 136.203 158.959 137.387 160.431 138.283C161.903 139.179 163.791 139.627 166.095 139.627C167.375 139.627 168.399 139.563 169.167 139.435C169.935 139.275 170.735 139.067 171.567 138.811C172.239 138.587 172.831 138.427 173.343 138.331C173.855 138.235 174.511 138.187 175.311 138.187C176.207 138.187 176.767 138.251 176.991 138.379C177.247 138.507 177.375 138.795 177.375 139.243C177.375 139.563 176.719 139.963 175.407 140.443C174.095 140.923 172.623 141.355 170.991 141.739C169.359 142.123 168.239 142.315 167.631 142.315ZM189.473 142.363C188.545 142.363 187.329 140.987 185.825 138.235C184.353 135.451 182.641 131.931 180.689 127.675L179.297 124.699C179.297 124.379 179.489 124.075 179.873 123.787C180.257 123.467 180.833 123.323 181.601 123.355C181.793 123.707 182.401 125.003 183.425 127.243C184.641 129.867 185.665 132.027 186.497 133.723C187.361 135.387 188.401 137.179 189.617 139.099C190.161 137.115 190.769 135.259 191.441 133.531C192.145 131.771 193.185 129.291 194.561 126.091L195.281 124.411C195.473 124.027 195.841 123.835 196.385 123.835C196.769 123.835 197.105 123.931 197.393 124.123C197.681 124.315 197.825 124.587 197.825 124.939C197.825 125.259 197.665 125.595 197.345 125.947C197.121 126.171 196.801 126.827 196.385 127.915C195.969 128.971 195.537 130.155 195.089 131.467C193.873 134.923 192.817 137.627 191.921 139.579C191.025 141.499 190.209 142.427 189.473 142.363ZM212.514 142.315C210.466 142.315 208.578 141.915 206.85 141.115C205.122 140.315 203.746 139.179 202.722 137.707C201.698 136.235 201.186 134.539 201.186 132.619C201.186 130.475 201.586 128.475 202.386 126.619C203.186 124.731 204.354 123.227 205.89 122.107C207.458 120.955 209.282 120.379 211.362 120.379C213.538 120.379 215.186 121.083 216.306 122.491C217.426 123.867 217.954 125.611 217.89 127.723C217.89 129.611 217.138 131.051 215.634 132.043C214.162 133.035 212.274 133.531 209.97 133.531C209.618 133.531 209.09 133.499 208.386 133.435C207.234 133.307 206.418 133.131 205.938 132.907C205.458 132.683 205.218 132.235 205.218 131.563C205.218 131.339 205.282 131.179 205.41 131.083C205.538 130.955 205.794 130.891 206.178 130.891C206.594 130.891 207.33 130.987 208.386 131.179C209.41 131.371 210.322 131.467 211.122 131.467C214.066 131.467 215.538 130.187 215.538 127.627C215.538 126.091 215.25 124.875 214.674 123.979C214.13 123.083 213.154 122.635 211.746 122.635C210.21 122.635 208.834 123.051 207.618 123.883C206.402 124.683 205.458 125.739 204.786 127.051C204.146 128.363 203.826 129.755 203.826 131.227C203.826 133.755 204.53 135.835 205.938 137.467C207.346 139.067 209.522 139.867 212.466 139.867C212.818 139.867 213.41 139.835 214.242 139.771C214.594 139.739 215.026 139.643 215.538 139.483C216.05 139.323 216.418 139.211 216.642 139.147C218.018 138.667 219.026 138.427 219.666 138.427C220.146 138.427 220.514 138.555 220.77 138.811C219.97 140.027 218.77 140.923 217.17 141.499C215.602 142.043 214.05 142.315 212.514 142.315ZM225.341 141.979C224.637 138.491 224.093 134.363 223.709 129.595C223.357 124.795 223.181 120.155 223.181 115.675C223.181 113.435 223.229 111.451 223.325 109.723C223.325 109.307 223.645 109.099 224.285 109.099C224.797 109.099 225.117 109.227 225.245 109.483C225.405 109.739 225.485 110.139 225.485 110.683C225.485 115.867 225.581 120.299 225.773 123.979C225.965 127.627 226.221 131.563 226.541 135.787C226.733 138.507 226.861 140.347 226.925 141.307C226.957 141.819 226.685 142.075 226.109 142.075C225.917 142.075 225.661 142.043 225.341 141.979ZM253.228 142.363C250.572 142.363 248.636 141.867 247.42 140.875C246.236 139.883 245.644 138.091 245.644 135.499L246.316 124.747V114.427C246.316 113.627 246.476 113.115 246.796 112.891C247.116 112.635 247.82 112.507 248.908 112.507L252.172 112.603C256.268 112.827 260.268 112.939 264.172 112.939C265.004 112.939 265.66 113.179 266.14 113.659C266.652 114.139 266.908 114.795 266.908 115.627C266.908 115.787 266.86 115.915 266.764 116.011C266.668 116.107 266.556 116.139 266.428 116.107L264.172 115.243L249.148 115.627C248.956 115.627 248.844 115.611 248.812 115.579C248.94 115.835 249.004 116.059 249.004 116.251V124.747C250.476 124.843 251.9 124.891 253.276 124.891C255.644 124.891 258.252 124.779 261.1 124.555C261.388 124.523 261.82 124.491 262.396 124.459C263.004 124.395 263.34 124.395 263.404 124.459C263.596 124.651 263.74 124.827 263.836 124.987C263.932 125.147 263.996 125.371 264.028 125.659C264.124 126.363 263.052 126.827 260.812 127.051C258.604 127.275 255.644 127.451 251.932 127.579C250.684 127.579 249.644 127.611 248.812 127.675C248.428 128.635 248.236 130.171 248.236 132.283L248.284 135.115V138.235C248.796 138.651 249.356 138.923 249.964 139.051C250.572 139.179 251.564 139.243 252.94 139.243C254.38 139.243 255.788 139.163 257.164 139.003C258.572 138.843 259.404 138.747 259.66 138.715C262.348 138.395 264.348 138.235 265.66 138.235C266.428 138.235 266.956 138.315 267.244 138.475C267.564 138.603 267.724 138.843 267.724 139.195C267.724 141.307 263.436 142.363 254.86 142.363H253.228ZM294.433 142.363C294.049 142.363 293.777 142.267 293.617 142.075C293.489 141.883 293.425 141.611 293.425 141.259C293.425 140.555 293.585 139.467 293.905 137.995C294.257 136.651 294.433 135.547 294.433 134.683C294.433 132.187 294.241 130.283 293.857 128.971H292.369C291.057 128.971 289.345 128.939 287.233 128.875L282.721 128.827H276.241L276.337 130.699C276.337 132.171 276.577 134.011 277.057 136.219C277.217 137.115 277.361 138.027 277.489 138.955C277.649 139.851 277.729 140.667 277.729 141.403V141.835C277.409 142.155 277.073 142.315 276.721 142.315C275.889 142.315 275.233 141.339 274.753 139.387C274.273 137.403 274.033 135.019 274.033 132.235C274.033 131.115 274.081 130.011 274.177 128.923C273.473 128.891 272.993 128.779 272.737 128.587C272.481 128.363 272.353 128.027 272.353 127.579C272.353 127.227 272.449 126.987 272.641 126.859C272.865 126.731 273.249 126.635 273.793 126.571L273.745 125.275L273.889 123.067C274.113 119.451 274.449 116.507 274.897 114.235C275.345 111.963 276.305 109.995 277.777 108.331C279.249 106.667 281.457 105.835 284.401 105.835C287.761 105.835 290.385 107.643 292.273 111.259C294.161 114.875 295.441 118.907 296.113 123.355C296.785 127.803 297.121 131.627 297.121 134.827C297.121 135.979 297.089 136.987 297.025 137.851C296.961 138.683 296.833 139.723 296.641 140.971C295.905 141.899 295.169 142.363 294.433 142.363ZM293.665 127.099C293.057 121.179 291.969 116.539 290.401 113.179C288.833 109.787 286.481 108.091 283.345 108.091C281.009 108.091 279.281 109.179 278.161 111.355C277.073 113.499 276.417 115.803 276.193 118.267C275.969 120.731 275.857 123.499 275.857 126.571L293.665 127.099ZM317.099 140.491C319.723 140.491 321.755 140.123 323.195 139.387C324.635 138.651 325.355 137.579 325.355 136.171C325.355 134.923 324.923 133.851 324.059 132.955C323.195 132.027 322.123 131.243 320.843 130.603C319.563 129.963 317.819 129.211 315.611 128.347C315.419 128.283 314.955 128.107 314.219 127.819C311.211 126.603 308.891 125.387 307.259 124.171C305.659 122.955 304.859 121.387 304.859 119.467C304.859 117.323 305.707 115.707 307.403 114.619C309.099 113.531 311.275 112.987 313.931 112.987C315.883 112.987 317.675 113.243 319.307 113.755C320.971 114.235 322.283 114.907 323.243 115.771C324.235 116.635 324.731 117.611 324.731 118.699C324.347 118.891 323.979 118.987 323.627 118.987C323.243 118.987 322.843 118.907 322.427 118.747C322.043 118.555 321.467 118.251 320.699 117.835C319.451 117.163 318.283 116.635 317.195 116.251C316.107 115.835 314.827 115.627 313.355 115.627C311.499 115.627 309.995 115.947 308.843 116.587C307.691 117.227 307.115 118.123 307.115 119.275C307.115 120.171 307.499 120.987 308.267 121.723C309.067 122.459 310.059 123.115 311.243 123.691C312.459 124.235 314.075 124.891 316.091 125.659C318.651 126.651 320.763 127.579 322.427 128.443C324.091 129.307 325.499 130.411 326.651 131.755C327.835 133.067 328.427 134.635 328.427 136.459C328.427 138.603 327.403 140.267 325.355 141.451C323.307 142.603 320.763 143.179 317.723 143.179C315.323 143.179 312.955 142.827 310.619 142.123C308.283 141.419 306.283 140.379 304.619 139.003C302.955 137.595 301.899 135.915 301.451 133.963C301.451 133.099 301.691 132.363 302.171 131.755C302.651 131.115 303.243 130.795 303.947 130.795C303.947 132.875 304.523 134.651 305.675 136.123C306.859 137.563 308.443 138.651 310.427 139.387C312.443 140.123 314.667 140.491 317.099 140.491ZM342.712 142.363C340.056 142.363 338.12 141.867 336.904 140.875C335.72 139.883 335.128 138.091 335.128 135.499L335.8 124.747V114.427C335.8 113.627 335.96 113.115 336.28 112.891C336.6 112.635 337.304 112.507 338.392 112.507L341.656 112.603C345.752 112.827 349.752 112.939 353.656 112.939C354.488 112.939 355.144 113.179 355.624 113.659C356.136 114.139 356.392 114.795 356.392 115.627C356.392 115.787 356.344 115.915 356.248 116.011C356.152 116.107 356.04 116.139 355.912 116.107L353.656 115.243L338.632 115.627C338.44 115.627 338.328 115.611 338.296 115.579C338.424 115.835 338.488 116.059 338.488 116.251V124.747C339.96 124.843 341.384 124.891 342.76 124.891C345.128 124.891 347.736 124.779 350.584 124.555C350.872 124.523 351.304 124.491 351.88 124.459C352.488 124.395 352.824 124.395 352.888 124.459C353.08 124.651 353.224 124.827 353.32 124.987C353.416 125.147 353.48 125.371 353.512 125.659C353.608 126.363 352.536 126.827 350.296 127.051C348.088 127.275 345.128 127.451 341.416 127.579C340.168 127.579 339.128 127.611 338.296 127.675C337.912 128.635 337.72 130.171 337.72 132.283L337.768 135.115V138.235C338.28 138.651 338.84 138.923 339.448 139.051C340.056 139.179 341.048 139.243 342.424 139.243C343.864 139.243 345.272 139.163 346.648 139.003C348.056 138.843 348.888 138.747 349.144 138.715C351.832 138.395 353.832 138.235 355.144 138.235C355.912 138.235 356.44 138.315 356.728 138.475C357.048 138.603 357.208 138.843 357.208 139.195C357.208 141.307 352.92 142.363 344.344 142.363H342.712Z" fill="white"/>
<path d="M128.833 103.19C128.833 106.687 126.338 109.315 123.5 109.315C120.662 109.315 118.167 106.687 118.167 103.19C118.167 99.6937 120.662 97.0654 123.5 97.0654C126.338 97.0654 128.833 99.6937 128.833 103.19Z" stroke="white" stroke-width="2"/>
<circle cx="117.167" cy="94.4821" r="3.16667" fill="white"/>
<circle cx="129.833" cy="94.4821" r="3.16667" fill="white"/>
<path d="M127.696 105.37L123.799 105.953L125.534 101.849L127.696 105.37Z" fill="white"/>
<path d="M194.833 119.19C194.833 122.687 192.338 125.315 189.5 125.315C186.662 125.315 184.167 122.687 184.167 119.19C184.167 115.694 186.662 113.065 189.5 113.065C192.338 113.065 194.833 115.694 194.833 119.19Z" stroke="white" stroke-width="2"/>
<circle cx="183.167" cy="110.482" r="3.16667" fill="white"/>
<circle cx="195.833" cy="110.482" r="3.16667" fill="white"/>
<path d="M193.696 121.37L189.799 121.953L191.534 117.849L193.696 121.37Z" fill="white"/>
<path d="M214.467 113.5C214.501 115.557 212.678 117.405 210.198 117.447C207.719 117.488 205.835 115.701 205.801 113.644C205.767 111.587 207.59 109.739 210.069 109.698C212.549 109.657 214.432 111.443 214.467 113.5Z" stroke="white" stroke-width="2"/>
<ellipse cx="204.702" cy="107.703" rx="2.66667" ry="2.16667" transform="rotate(-0.951434 204.702 107.703)" fill="white"/>
<ellipse cx="215.367" cy="107.526" rx="2.66667" ry="2.16667" transform="rotate(-0.951434 215.367 107.526)" fill="white"/>
<path d="M213.691 115.005L210.417 115.458L211.831 112.626L213.691 115.005Z" fill="white"/>
<path d="M229.833 100.19C229.833 103.687 227.338 106.315 224.5 106.315C221.662 106.315 219.167 103.687 219.167 100.19C219.167 96.6937 221.662 94.0654 224.5 94.0654C227.338 94.0654 229.833 96.6937 229.833 100.19Z" stroke="white" stroke-width="2"/>
<circle cx="218.167" cy="91.4821" r="3.16667" fill="white"/>
<circle cx="230.833" cy="91.4821" r="3.16667" fill="white"/>
<path d="M228.696 102.37L224.799 102.953L226.534 98.8488L228.696 102.37Z" fill="white"/>
<path d="M172.249 110.998C173.182 113.81 171.961 116.414 169.979 117.072C167.998 117.729 165.462 116.371 164.529 113.56C163.596 110.748 164.818 108.143 166.799 107.486C168.78 106.829 171.317 108.187 172.249 110.998Z" stroke="white" stroke-width="2"/>
<ellipse cx="161.251" cy="106.857" rx="2.53356" ry="2.6888" transform="rotate(-18.3549 161.251 106.857)" fill="white"/>
<ellipse cx="170.87" cy="103.665" rx="2.53356" ry="2.6888" transform="rotate(-18.3549 170.87 103.665)" fill="white"/>
<path d="M172.158 112.979L169.355 114.43L169.575 110.685L172.158 112.979Z" fill="white"/>
<path d="M152.323 112.106C151.698 115.546 148.773 117.686 145.98 117.179C143.188 116.671 141.203 113.639 141.828 110.199C142.453 106.758 145.378 104.619 148.17 105.126C150.963 105.633 152.948 108.665 152.323 112.106Z" stroke="white" stroke-width="2"/>
<circle cx="142.401" cy="101.452" r="3.16667" transform="rotate(10.298 142.401 101.452)" fill="white"/>
<circle cx="154.864" cy="103.716" r="3.16667" transform="rotate(10.298 154.864 103.716)" fill="white"/>
<path d="M150.814 114.047L146.876 113.924L149.316 110.196L150.814 114.047Z" fill="white"/>
<ellipse cx="55.9322" cy="61.3233" rx="37.2881" ry="17.444" fill="white"/>
<ellipse cx="69.774" cy="74.5905" rx="17.7966" ry="11.056" fill="white"/>
<ellipse cx="37.5706" cy="72.1336" rx="17.7966" ry="11.056" fill="white"/>
<ellipse cx="48.3051" cy="48.056" rx="17.7966" ry="11.056" fill="white"/>
<ellipse cx="22.8814" cy="80.9784" rx="17.7966" ry="11.056" fill="white"/>
<ellipse cx="22.8814" cy="50.0215" rx="17.7966" ry="11.056" fill="white"/>
<ellipse cx="17.7966" cy="63.2888" rx="17.7966" ry="11.056" fill="white"/>
<ellipse cx="82.2034" cy="67.7112" rx="17.7966" ry="11.056" fill="white"/>
<ellipse cx="51.6949" cy="82.944" rx="17.7966" ry="11.056" fill="white"/>
<ellipse cx="338.932" cy="220.323" rx="37.2881" ry="17.444" fill="white"/>
<ellipse cx="352.774" cy="233.591" rx="17.7966" ry="11.056" fill="white"/>
<ellipse cx="320.571" cy="231.134" rx="17.7966" ry="11.056" fill="white"/>
<ellipse cx="331.305" cy="207.056" rx="17.7966" ry="11.056" fill="white"/>
<ellipse cx="305.881" cy="239.978" rx="17.7966" ry="11.056" fill="white"/>
<ellipse cx="305.881" cy="209.022" rx="17.7966" ry="11.056" fill="white"/>
<ellipse cx="300.797" cy="222.289" rx="17.7966" ry="11.056" fill="white"/>
<ellipse cx="365.203" cy="226.711" rx="17.7966" ry="11.056" fill="white"/>
<ellipse cx="334.695" cy="241.944" rx="17.7966" ry="11.056" fill="white"/>
<ellipse cx="344.932" cy="24.3233" rx="37.2881" ry="17.444" fill="white"/>
<ellipse cx="358.774" cy="37.5905" rx="17.7966" ry="11.056" fill="white"/>
<ellipse cx="326.571" cy="35.1336" rx="17.7966" ry="11.056" fill="white"/>
<ellipse cx="337.305" cy="11.056" rx="17.7966" ry="11.056" fill="white"/>
<ellipse cx="311.881" cy="43.9784" rx="17.7966" ry="11.056" fill="white"/>
<ellipse cx="311.881" cy="13.0215" rx="17.7966" ry="11.056" fill="white"/>
<ellipse cx="306.797" cy="26.2888" rx="17.7966" ry="11.056" fill="white"/>
<ellipse cx="371.203" cy="30.7112" rx="17.7966" ry="11.056" fill="white"/>
<ellipse cx="340.695" cy="45.944" rx="17.7966" ry="11.056" fill="white"/>
<rect x="423.5" y="70.5" width="51" height="54" stroke="white" stroke-width="5"/>
<line x1="426.627" y1="125.898" x2="384.627" y2="161.898" stroke="white" stroke-width="5"/>
<ellipse cx="520" cy="175" rx="12" ry="11" fill="white"/>
<ellipse cx="520" cy="166" rx="12" ry="11" fill="white"/>
<line x1="171.7" y1="165.363" x2="81.6997" y2="264.363" stroke="white" stroke-width="10"/>
</svg>
